<svg width="126" height="20" xmlns="http://www.w3.org/2000/svg"><g fill="none" fill-rule="evenodd"><g fill="#FFF"><path d="M61.392 8.406V5.432H60.33v-.606h2.845v.606h-1.06v2.974h-.723Zm2.9 0h-.685V5.813h.637v.368c.109-.174.207-.289.294-.344a.541.541 0 0 1 .297-.083.87.87 0 0 1 .451.13l-.212.598a.602.602 0 0 0-.322-.113.38.38 0 0 0-.244.08c-.067.053-.12.148-.158.287-.038.138-.057.428-.057.869v.8Zm1.802-1.802-.622-.113c.07-.25.19-.436.361-.556.171-.12.425-.18.762-.18.306 0 .534.035.684.108.15.072.255.164.316.276.06.111.091.316.091.614l-.007.8c0 .228.01.396.033.505.022.108.063.224.123.348h-.679a2.523 2.523 0 0 1-.065-.203 1.233 1.233 0 0 0-.025-.08c-.117.113-.242.199-.376.256a1.077 1.077 0 0 1-.427.085c-.267 0-.477-.072-.631-.217a.722.722 0 0 1-.23-.55c0-.146.034-.277.104-.391a.686.686 0 0 1 .294-.264 2.3 2.3 0 0 1 .546-.16c.32-.06.543-.116.666-.168v-.069c0-.132-.032-.226-.097-.282-.065-.056-.188-.084-.369-.084a.49.49 0 0 0-.286.072.5.5 0 0 0-.166.253Zm.918.556c-.087.03-.227.065-.417.105-.19.041-.315.08-.374.12a.286.286 0 0 0-.134.242c0 .096.036.179.108.249.071.07.162.105.273.105.124 0 .242-.041.354-.122a.43.43 0 0 0 .164-.227c.017-.059.026-.17.026-.335V7.16Zm3.728 1.246h-.637v-.381a1.03 1.03 0 0 1-.375.33.961.961 0 0 1-.435.11.988.988 0 0 1-.766-.361c-.212-.24-.318-.575-.318-1.005 0-.44.103-.773.31-1.002a1.01 1.01 0 0 1 .783-.343c.29 0 .54.12.752.361V4.826h.686v3.58Zm-1.83-1.353c0 .277.038.477.114.6a.518.518 0 0 0 .867.068c.11-.135.166-.335.166-.602 0-.298-.054-.512-.161-.643a.51.51 0 0 0-.413-.197c-.163 0-.299.065-.409.194-.11.13-.165.323-.165.58Zm4.008.527.684.115c-.088.25-.227.442-.416.573-.19.13-.427.196-.712.196-.451 0-.785-.147-1.001-.442-.171-.236-.256-.534-.256-.893 0-.43.112-.767.336-1.01a1.11 1.11 0 0 1 .852-.365c.386 0 .69.128.914.382.223.255.33.645.32 1.17h-1.72c.006.204.06.363.167.476a.52.52 0 0 0 .395.17.42.42 0 0 0 .271-.088.543.543 0 0 0 .166-.284Zm.04-.693c-.006-.199-.057-.35-.155-.453a.472.472 0 0 0-.356-.155.476.476 0 0 0-.371.164c-.098.109-.146.257-.144.444h1.025Zm1.161.564v-.686h1.348v.686h-1.348Zm1.692-1.638h.633v.354c.226-.275.495-.413.808-.413a.87.87 0 0 1 .432.103.788.788 0 0 1 .3.31c.114-.139.237-.242.369-.31a.904.904 0 0 1 .422-.103.94.94 0 0 1 .484.116.71.71 0 0 1 .295.34c.047.111.07.29.07.538v1.658h-.685V6.924c0-.258-.024-.424-.071-.498-.064-.098-.161-.147-.293-.147a.468.468 0 0 0-.271.088.488.488 0 0 0-.183.258c-.038.113-.056.291-.056.535v1.246h-.686V6.985c0-.253-.013-.415-.037-.489a.312.312 0 0 0-.114-.163.359.359 0 0 0-.208-.054.5.5 0 0 0-.286.086.469.469 0 0 0-.182.246c-.036.108-.055.286-.055.535v1.26h-.686V5.813Zm5.01.79-.623-.112c.07-.25.19-.436.362-.556.17-.12.425-.18.762-.18.305 0 .533.035.683.108.15.072.255.164.316.276.061.111.092.316.092.614l-.008.8c0 .228.011.396.033.505.022.108.064.224.124.348h-.679a2.523 2.523 0 0 1-.066-.203 1.233 1.233 0 0 0-.024-.08c-.117.113-.243.199-.376.256a1.077 1.077 0 0 1-.428.085c-.266 0-.477-.072-.63-.217a.722.722 0 0 1-.231-.55c0-.146.035-.277.105-.391a.686.686 0 0 1 .294-.264 2.3 2.3 0 0 1 .545-.16c.321-.06.543-.116.667-.168v-.069c0-.132-.033-.226-.098-.282-.065-.056-.188-.084-.368-.084a.49.49 0 0 0-.286.072.5.5 0 0 0-.166.253Zm.918.557c-.088.03-.227.065-.417.105-.19.041-.315.08-.374.12a.286.286 0 0 0-.134.242c0 .096.036.179.107.249.072.07.163.105.274.105.123 0 .241-.041.354-.122a.43.43 0 0 0 .163-.227c.018-.059.027-.17.027-.335V7.16Zm2.007 1.246h-.686V5.813h.637v.368c.109-.174.207-.289.294-.344a.541.541 0 0 1 .297-.083.87.87 0 0 1 .451.13l-.212.598a.602.602 0 0 0-.322-.113.38.38 0 0 0-.244.08c-.067.053-.12.148-.158.287-.038.138-.057.428-.057.869v.8Zm1.264 0v-3.58h.687v1.9l.803-.913h.844l-.886.947.95 1.646h-.74l-.652-1.165-.32.334v.83h-.686Zm4.036-1.333c0-.228.056-.449.169-.662.112-.213.271-.376.477-.488.206-.113.436-.169.69-.169.392 0 .713.128.964.382.25.255.376.577.376.966 0 .392-.127.717-.38.975a1.283 1.283 0 0 1-.956.387c-.237 0-.464-.054-.68-.161a1.105 1.105 0 0 1-.491-.472 1.574 1.574 0 0 1-.169-.758Zm.703.036c0 .257.061.454.183.591a.582.582 0 0 0 .452.205c.179 0 .33-.068.45-.205.122-.137.182-.335.182-.596 0-.254-.06-.449-.182-.586a.578.578 0 0 0-.45-.205.582.582 0 0 0-.452.205c-.122.137-.183.334-.183.591Zm2.21-1.296h.38v-.196c0-.218.024-.38.07-.488a.55.55 0 0 1 .257-.262.983.983 0 0 1 .472-.102c.195 0 .386.03.574.088l-.093.479a1.355 1.355 0 0 0-.315-.04c-.1 0-.17.024-.214.07-.043.047-.064.136-.064.268v.183h.512v.54h-.512v2.053h-.686V6.352h-.381v-.54Zm3.337 2.593v-3.58h.723v3.58h-.723Zm3.765 0h-.686V7.082c0-.28-.015-.46-.044-.543a.381.381 0 0 0-.381-.26.55.55 0 0 0-.32.098.492.492 0 0 0-.194.259c-.035.107-.052.305-.052.595v1.175h-.687V5.813h.638v.38c.226-.292.51-.439.854-.439.152 0 .29.027.415.082.126.054.22.124.285.209.064.084.109.18.134.288.025.107.038.261.038.461v1.612Zm1.885-2.593v.547h-.47v1.045c0 .211.005.334.014.37a.15.15 0 0 0 .061.086c.032.023.07.034.116.034a.887.887 0 0 0 .276-.066l.059.533c-.16.068-.34.102-.542.102a.86.86 0 0 1-.335-.062.488.488 0 0 1-.218-.161.636.636 0 0 1-.097-.268 3.325 3.325 0 0 1-.022-.483V6.36h-.315v-.547h.315v-.515l.689-.4v.915h.469Zm1.977 1.767.684.115c-.088.25-.227.442-.417.573-.19.13-.426.196-.711.196-.451 0-.785-.147-1.001-.442-.171-.236-.257-.534-.257-.893 0-.43.113-.767.337-1.01a1.11 1.11 0 0 1 .852-.365c.386 0 .69.128.913.382.223.255.33.645.32 1.17h-1.718c.004.204.06.363.166.476a.52.52 0 0 0 .395.17.42.42 0 0 0 .271-.088.543.543 0 0 0 .166-.284Zm.04-.693c-.006-.199-.057-.35-.155-.453a.472.472 0 0 0-.356-.155.476.476 0 0 0-.371.164c-.098.109-.146.257-.144.444h1.025Zm1.896 1.519h-.686V5.813h.637v.368c.11-.174.207-.289.294-.344a.541.541 0 0 1 .297-.083.87.87 0 0 1 .452.13l-.213.598a.602.602 0 0 0-.322-.113.38.38 0 0 0-.244.08c-.067.053-.12.148-.158.287-.038.138-.057.428-.057.869v.8Zm1.802-1.802-.623-.113c.07-.25.19-.436.362-.556.17-.12.424-.18.761-.18.306 0 .534.035.684.108.15.072.255.164.316.276.061.111.092.316.092.614l-.008.8c0 .228.011.396.033.505.022.108.063.224.124.348h-.68a2.523 2.523 0 0 1-.065-.203 1.233 1.233 0 0 0-.024-.08c-.118.113-.243.199-.376.256a1.077 1.077 0 0 1-.428.085c-.267 0-.477-.072-.63-.217a.722.722 0 0 1-.231-.55c0-.146.034-.277.104-.391a.686.686 0 0 1 .295-.264 2.3 2.3 0 0 1 .545-.16c.321-.06.543-.116.667-.168v-.069c0-.132-.033-.226-.098-.282-.065-.056-.188-.084-.368-.084a.49.49 0 0 0-.286.072.5.5 0 0 0-.166.253Zm.918.556c-.088.03-.227.065-.418.105-.19.041-.315.08-.373.12a.286.286 0 0 0-.134.242c0 .096.035.179.107.249s.163.105.273.105c.124 0 .242-.041.354-.122a.43.43 0 0 0 .164-.227c.018-.059.027-.17.027-.335V7.16Zm3.61-.58-.676.121a.49.49 0 0 0-.155-.305.468.468 0 0 0-.313-.102.513.513 0 0 0-.41.177c-.101.118-.152.315-.152.592 0 .307.052.525.155.652.104.127.242.19.416.19.13 0 .237-.037.32-.111.083-.074.142-.201.176-.382l.674.115c-.07.309-.204.542-.403.7-.199.158-.465.237-.798.237-.38 0-.682-.12-.907-.359-.226-.239-.338-.57-.338-.993 0-.428.113-.762.339-1 .226-.239.532-.358.918-.358.316 0 .567.068.753.204.186.136.32.343.402.621Zm4.205.51.7.222c-.107.39-.286.68-.535.87-.25.19-.567.285-.951.285-.476 0-.866-.163-1.172-.488-.306-.324-.46-.768-.46-1.331 0-.596.155-1.059.462-1.388.308-.33.712-.495 1.214-.495.437 0 .793.13 1.066.389.163.153.285.372.367.659l-.716.17a.759.759 0 0 0-.265-.439.759.759 0 0 0-.489-.16.814.814 0 0 0-.646.285c-.165.19-.248.499-.248.925 0 .452.082.775.245.967a.793.793 0 0 0 .634.288.724.724 0 0 0 .496-.183c.138-.122.238-.314.298-.576Zm1.157-.017c0-.228.056-.449.168-.662.113-.213.272-.376.478-.488.206-.113.436-.169.69-.169.392 0 .713.128.964.382.25.255.376.577.376.966 0 .392-.127.717-.38.975a1.283 1.283 0 0 1-.956.387c-.237 0-.464-.054-.68-.161a1.105 1.105 0 0 1-.492-.472 1.574 1.574 0 0 1-.168-.758Zm.703.036c0 .257.061.454.183.591a.582.582 0 0 0 .452.205c.179 0 .33-.068.45-.205.122-.137.182-.335.182-.596 0-.254-.06-.449-.182-.586a.578.578 0 0 0-.45-.205.582.582 0 0 0-.452.205c-.122.137-.183.334-.183.591Zm3.167 1.297h-.686V5.813h.637v.368c.109-.174.207-.289.294-.344a.541.541 0 0 1 .297-.083.87.87 0 0 1 .451.13l-.212.598a.602.602 0 0 0-.322-.113.38.38 0 0 0-.245.08c-.066.053-.119.148-.157.287-.038.138-.057.428-.057.869v.8Zm1.27-2.593h.639v.38a.957.957 0 0 1 .808-.439c.301 0 .557.118.767.354.21.236.314.565.314.986 0 .433-.105.77-.317 1.01a.989.989 0 0 1-.769.36.874.874 0 0 1-.39-.085 1.313 1.313 0 0 1-.367-.293v1.306h-.686v-3.58Zm.678 1.252c0 .292.058.507.173.646a.53.53 0 0 0 .423.209c.16 0 .292-.064.398-.192.105-.128.158-.337.158-.629 0-.271-.054-.473-.163-.605a.506.506 0 0 0-.406-.198.526.526 0 0 0-.417.194c-.11.13-.166.321-.166.575Zm2.395 1.34V7.72h.686v.687h-.686Zm-64.182 2.421h.722v1.939c0 .308.01.507.027.598a.58.58 0 0 0 .221.353c.117.089.276.133.478.133.205 0 .36-.042.463-.126a.497.497 0 0 0 .188-.309c.022-.122.032-.324.032-.608v-1.98h.723v1.88c0 .43-.02.734-.059.91-.039.178-.11.328-.216.45-.105.122-.245.22-.421.292-.176.072-.405.109-.689.109-.341 0-.6-.04-.777-.119a1.112 1.112 0 0 1-.419-.307.986.986 0 0 1-.202-.397c-.048-.205-.071-.508-.071-.908v-1.91Zm3.369 2.84.688-.105c.03.133.09.235.179.304.09.069.214.104.376.104.177 0 .31-.033.4-.098a.218.218 0 0 0 .09-.183.18.18 0 0 0-.049-.13c-.034-.032-.11-.062-.229-.09-.553-.122-.904-.234-1.052-.334a.668.668 0 0 1-.308-.584.72.72 0 0 1 .266-.566c.178-.153.453-.23.825-.23.355 0 .619.058.791.173a.886.886 0 0 1 .357.513l-.647.12a.4.4 0 0 0-.158-.232.576.576 0 0 0-.33-.08c-.181 0-.31.025-.389.075a.163.163 0 0 0-.078.14c0 .048.023.09.069.124.062.045.275.11.64.193.366.083.621.184.766.305.143.122.215.292.215.51 0 .238-.1.442-.298.613-.199.17-.492.256-.881.256-.354 0-.633-.072-.839-.215a.99.99 0 0 1-.404-.583Zm4.524-.086.683.115c-.087.25-.226.442-.416.573-.19.13-.427.196-.712.196-.45 0-.784-.147-1-.442-.171-.236-.257-.534-.257-.893 0-.43.112-.767.337-1.01a1.11 1.11 0 0 1 .852-.365c.386 0 .69.128.913.382.223.255.33.645.32 1.17h-1.719c.005.204.06.363.166.476a.52.52 0 0 0 .396.17.42.42 0 0 0 .27-.088.543.543 0 0 0 .167-.284Zm.039-.693c-.005-.199-.056-.35-.154-.453a.472.472 0 0 0-.356-.155.476.476 0 0 0-.371.164c-.098.109-.146.257-.144.444h1.025Zm3.618 1.519h-.637v-.381a1.03 1.03 0 0 1-.375.33.961.961 0 0 1-.436.11.988.988 0 0 1-.765-.361c-.212-.24-.319-.575-.319-1.005 0-.44.104-.773.31-1.002a1.01 1.01 0 0 1 .784-.343c.29 0 .54.12.752.361v-1.289h.686v3.58Zm-1.831-1.353c0 .277.038.477.115.6a.518.518 0 0 0 .866.068c.111-.135.166-.335.166-.602 0-.298-.053-.512-.16-.643a.51.51 0 0 0-.413-.197c-.163 0-.3.065-.41.194-.11.13-.164.323-.164.58Zm5.603 1.353v-.389a1.044 1.044 0 0 1-1.328.332.677.677 0 0 1-.3-.322c-.062-.138-.093-.33-.093-.574v-1.64h.686v1.191c0 .365.012.588.038.67a.365.365 0 0 0 .138.196.424.424 0 0 0 .254.072.54.54 0 0 0 .505-.336c.034-.095.051-.328.051-.7v-1.093h.686v2.593h-.637Zm3.706 0h-.686v-1.324c0-.28-.015-.46-.044-.543a.381.381 0 0 0-.38-.26.55.55 0 0 0-.32.098.492.492 0 0 0-.195.259c-.035.107-.052.305-.052.595v1.175h-.686v-2.593h.637v.38c.226-.292.511-.439.855-.439.15 0 .29.027.415.082.125.054.22.124.284.209.064.084.109.18.134.288.025.107.038.261.038.461v1.612Zm3.074 0h-.637v-.381a1.03 1.03 0 0 1-.375.33.961.961 0 0 1-.436.11.988.988 0 0 1-.765-.361c-.213-.24-.319-.575-.319-1.005 0-.44.103-.773.31-1.002a1.01 1.01 0 0 1 .784-.343c.29 0 .54.12.752.361v-1.289h.686v3.58Zm-1.831-1.353c0 .277.038.477.115.6a.518.518 0 0 0 .866.068c.11-.135.166-.335.166-.602 0-.298-.053-.512-.16-.643a.51.51 0 0 0-.414-.197c-.162 0-.299.065-.408.194-.11.13-.165.323-.165.58Zm4.009.527.683.115c-.088.25-.227.442-.416.573-.19.13-.427.196-.712.196-.45 0-.784-.147-1-.442-.172-.236-.257-.534-.257-.893 0-.43.112-.767.337-1.01a1.11 1.11 0 0 1 .852-.365c.386 0 .69.128.913.382.223.255.33.645.32 1.17h-1.719c.005.204.06.363.166.476a.52.52 0 0 0 .396.17.42.42 0 0 0 .27-.088.543.543 0 0 0 .167-.284Zm.039-.693c-.005-.199-.057-.35-.154-.453a.472.472 0 0 0-.357-.155.476.476 0 0 0-.37.164c-.098.109-.146.257-.145.444h1.026Zm1.897 1.519h-.686v-2.593h.637v.368c.109-.174.207-.289.294-.344a.541.541 0 0 1 .297-.083.87.87 0 0 1 .451.13l-.212.598a.602.602 0 0 0-.322-.113.38.38 0 0 0-.245.08c-.066.053-.119.148-.157.287-.038.138-.057.428-.057.869v.8Zm2.678 0v-3.58h.686v3.58h-.686Zm1.389-2.945v-.635h.686v.635h-.686Zm0 2.945v-2.593h.686v2.593h-.686Zm3.65-1.827-.676.122a.49.49 0 0 0-.155-.305.468.468 0 0 0-.314-.102.513.513 0 0 0-.41.177c-.1.118-.152.315-.152.592 0 .307.052.525.155.652.104.127.242.19.417.19.13 0 .236-.037.32-.111.082-.074.141-.201.175-.382l.674.115c-.07.309-.204.542-.403.7-.198.158-.464.237-.798.237-.38 0-.682-.12-.907-.359-.226-.239-.338-.57-.338-.993 0-.428.113-.762.34-1 .225-.239.531-.358.917-.358.316 0 .567.068.753.204.187.136.32.343.402.621Zm2.021 1.001.684.115c-.088.25-.227.442-.416.573-.19.13-.427.196-.712.196-.45 0-.784-.147-1.001-.442-.17-.236-.256-.534-.256-.893 0-.43.112-.767.337-1.01a1.11 1.11 0 0 1 .852-.365c.385 0 .69.128.913.382.223.255.33.645.32 1.17h-1.72c.006.204.061.363.167.476a.52.52 0 0 0 .395.17.42.42 0 0 0 .271-.088.543.543 0 0 0 .166-.284Zm.04-.693c-.005-.199-.057-.35-.154-.453a.472.472 0 0 0-.357-.155.476.476 0 0 0-.37.164c-.099.109-.147.257-.145.444h1.025Zm3.598 1.519h-.686v-1.324c0-.28-.015-.46-.044-.543a.381.381 0 0 0-.38-.26.55.55 0 0 0-.32.098.492.492 0 0 0-.195.259c-.035.107-.052.305-.052.595v1.175h-.686v-2.593h.637v.38c.226-.292.511-.439.854-.439.152 0 .29.027.416.082.125.054.22.124.284.209.064.084.109.18.134.288.025.107.038.261.038.461v1.612Zm.454-.74.689-.105c.029.133.088.235.178.304s.215.104.376.104c.177 0 .31-.033.4-.098a.218.218 0 0 0 .09-.183.18.18 0 0 0-.048-.13c-.034-.032-.111-.062-.23-.09-.553-.122-.904-.234-1.052-.334a.668.668 0 0 1-.308-.584.72.72 0 0 1 .266-.566c.178-.153.453-.23.826-.23.354 0 .618.058.79.173a.886.886 0 0 1 .357.513l-.647.12a.4.4 0 0 0-.157-.232.576.576 0 0 0-.331-.08c-.18 0-.31.025-.388.075a.163.163 0 0 0-.078.14c0 .048.022.09.068.124.062.045.275.11.64.193.366.083.621.184.766.305.143.122.215.292.215.51 0 .238-.1.442-.298.613-.198.17-.492.256-.881.256-.353 0-.633-.072-.839-.215a.99.99 0 0 1-.404-.583Zm4.524-.086.684.115c-.088.25-.227.442-.417.573-.19.13-.426.196-.711.196-.451 0-.785-.147-1.001-.442-.171-.236-.257-.534-.257-.893 0-.43.113-.767.337-1.01a1.11 1.11 0 0 1 .852-.365c.386 0 .69.128.913.382.223.255.33.645.32 1.17h-1.718c.004.204.06.363.166.476a.52.52 0 0 0 .395.17.42.42 0 0 0 .271-.088.543.543 0 0 0 .166-.284Zm.04-.693c-.006-.199-.057-.35-.155-.453a.472.472 0 0 0-.356-.155.476.476 0 0 0-.371.164c-.098.109-.146.257-.144.444h1.025Z"/><path d="M20 19.767a1.68 1.68 0 0 0 .703-1.36V1.36A1.68 1.68 0 0 0 20 0h29.166c.944 0 1.712.737 1.712 1.647V18.12c0 .91-.768 1.647-1.712 1.647H20Zm4.478-9.266h1.575v-.18a4.17 4.17 0 0 0-.046-.648 1.328 1.328 0 0 0-.173-.497.858.858 0 0 0-.35-.317 1.257 1.257 0 0 0-.568-.113c-.27 0-.485.044-.646.133a.94.94 0 0 0-.373.358c-.086.15-.144.321-.173.513a4.044 4.044 0 0 0-.043.6c0 .197.009.393.026.59.017.196.064.373.141.53a.896.896 0 0 0 .358.382c.162.096.387.144.676.144.38 0 .66-.094.837-.283.177-.188.273-.464.288-.825h-.715c-.024.196-.066.342-.127.438-.062.097-.16.145-.295.145a.285.285 0 0 1-.185-.061.437.437 0 0 1-.12-.162.879.879 0 0 1-.067-.23 1.744 1.744 0 0 1-.02-.269v-.248Zm3.607-.577h-1.627v.68h1.627v-.68Zm2.956-2.113h-2.632v.681h.9v3.44h.831v-3.44h.9v-.681Zm-.092 1.016v3.105h.796v-1.864c0-.104.018-.192.052-.263a.477.477 0 0 1 .139-.173.554.554 0 0 1 .19-.095.773.773 0 0 1 .208-.029 2.61 2.61 0 0 1 .248.012v-.762a.823.823 0 0 0-.144-.012.662.662 0 0 0-.421.136 1.13 1.13 0 0 0-.295.36h-.011v-.415h-.762Zm1.916.952h.716v-.086c0-.123.03-.222.092-.295.062-.073.154-.11.277-.11.135 0 .23.034.286.102.056.067.084.16.084.28 0 .104-.023.182-.07.236a.481.481 0 0 1-.248.127l-.45.122a1.914 1.914 0 0 0-.355.132.771.771 0 0 0-.242.188.73.73 0 0 0-.142.271 1.364 1.364 0 0 0-.006.693c.027.106.07.201.127.286a.597.597 0 0 0 .231.199.781.781 0 0 0 .352.072c.193 0 .35-.024.47-.072.122-.048.229-.153.321-.315h.012c.011.054.024.109.037.165a.66.66 0 0 0 .06.158h.763a1.189 1.189 0 0 1-.078-.26 2.199 2.199 0 0 1-.02-.34V9.698c0-.138-.015-.266-.044-.383a.658.658 0 0 0-.164-.303.789.789 0 0 0-.34-.197 1.968 1.968 0 0 0-.578-.069c-.15 0-.291.016-.424.05a.928.928 0 0 0-.347.16.791.791 0 0 0-.233.295 1.052 1.052 0 0 0-.087.453v.075Zm1.455.6v.613a.485.485 0 0 1-.046.219.441.441 0 0 1-.278.234.582.582 0 0 1-.167.026c-.108 0-.185-.043-.23-.127a.63.63 0 0 1-.07-.306c0-.139.035-.249.104-.33.07-.08.185-.138.346-.172.05-.012.106-.03.168-.055a.715.715 0 0 0 .173-.101Zm1.327-1.552v3.105h.797v-2.06c0-.343.14-.514.421-.514.12 0 .206.032.26.095.054.064.081.176.081.338v2.141h.797V9.63c0-.311-.069-.537-.205-.675-.137-.139-.332-.208-.586-.208a.973.973 0 0 0-.462.107.808.808 0 0 0-.33.338h-.01v-.364h-.763Zm3.47 2.09H38.4v.11c0 .15.017.285.052.406a.688.688 0 0 0 .182.309.812.812 0 0 0 .352.19c.148.043.334.064.557.064.17 0 .324-.017.465-.052a.939.939 0 0 0 .363-.173.843.843 0 0 0 .24-.303.991.991 0 0 0 .086-.43c0-.235-.052-.42-.155-.557-.104-.137-.281-.248-.532-.332l-.479-.162c-.134-.042-.226-.094-.274-.156a.329.329 0 0 1-.072-.208c0-.111.038-.195.113-.25a.428.428 0 0 1 .262-.084c.131 0 .222.037.274.112.052.075.078.194.078.355h.716V9.63c0-.28-.086-.498-.26-.652-.173-.154-.44-.231-.802-.231-.204 0-.378.025-.522.075-.145.05-.263.117-.355.202a.758.758 0 0 0-.202.297 1.024 1.024 0 0 0-.064.361c0 .22.056.4.167.54.112.14.277.25.497.326l.56.202c.077.03.144.072.202.124.058.052.086.128.086.228 0 .123-.036.216-.11.277a.442.442 0 0 1-.294.093c-.134 0-.237-.042-.308-.124a.483.483 0 0 1-.107-.327v-.104Zm2.153-1.548v2.563h.796V9.37h.462v-.542h-.462v-.271c0-.089.024-.152.07-.191.046-.038.125-.058.236-.058h.075c.035 0 .062.002.081.006v-.566a5.284 5.284 0 0 0-.427-.017c-.127 0-.242.013-.346.038a.653.653 0 0 0-.263.124.556.556 0 0 0-.164.23.95.95 0 0 0-.058.353v.352h-.404v.542h.404Zm-15.978.659h-.814v-.122c0-.073.006-.146.02-.22a.713.713 0 0 1 .066-.198.338.338 0 0 1 .323-.2c.081 0 .148.017.2.05.052.032.092.08.12.144.03.064.05.14.061.23.012.091.02.196.024.316Zm18.195.473h1.575v-.18a4.17 4.17 0 0 0-.046-.648 1.328 1.328 0 0 0-.173-.497.858.858 0 0 0-.35-.317 1.257 1.257 0 0 0-.568-.113c-.27 0-.485.044-.646.133a.94.94 0 0 0-.373.358c-.086.15-.144.321-.173.513a4.044 4.044 0 0 0-.043.6c0 .197.009.393.026.59.017.196.064.373.141.53a.896.896 0 0 0 .358.382c.162.096.387.144.676.144.38 0 .66-.094.837-.283.177-.188.273-.464.288-.825H44.3c-.023.196-.065.342-.127.438-.061.097-.16.145-.294.145a.285.285 0 0 1-.185-.061.437.437 0 0 1-.12-.162.879.879 0 0 1-.067-.23 1.744 1.744 0 0 1-.02-.269v-.248Zm.813-.473h-.813v-.122c0-.073.006-.146.02-.22a.713.713 0 0 1 .066-.198.338.338 0 0 1 .323-.2c.081 0 .148.017.2.05.051.032.092.08.12.144.03.064.05.14.061.23.012.091.02.196.023.316Zm1.178-1.201v3.105h.797v-1.864c0-.104.017-.192.052-.263a.477.477 0 0 1 .138-.173.554.554 0 0 1 .19-.095.773.773 0 0 1 .208-.029 2.61 2.61 0 0 1 .249.012v-.762a.823.823 0 0 0-.145-.012.662.662 0 0 0-.421.136 1.13 1.13 0 0 0-.294.36h-.012v-.415h-.762ZM19.832 18.18c0 .913-.74 1.652-1.653 1.652H1.653C.74 19.832 0 19.092 0 18.179V1.652C0 .74.74 0 1.653 0H18.18c.912 0 1.653.74 1.653 1.652V18.18Zm-8.777-8.037.966-.229-.001-1.966c0-.452.17-.747.506-.883.271-.11.478-.102.478-.102v-.908s-.084-.026-.253.017c-.549.143-.785.756-.785.756v-.466l-.912.22.001 3.561Zm-4.905 1.17 1.047-.25s-.216-.157-.216-.976V8.285l.692-.166v-.728l-.692.166v-.795L6 6.995v.795l-.474.113v.729L6 8.518v1.77c0 .8.15 1.026.15 1.026ZM7.803 9.2c0 1.031.31 1.746 1.471 1.468 1.226-.291 1.324-1.134 1.332-1.474l-.001-.154-.882.213s-.002.104-.007.145c-.025.253-.115.458-.44.527-.375.08-.5-.203-.5-.8v-.031l1.883-.446s0-.15.004-.455c.015-.855-.37-1.493-1.439-1.248-.542.125-.915.397-1.142.815-.19.352-.28.81-.28 1.44Zm1.46-1.596c.346-.08.465.124.467.51 0 .08 0 .13-.002.154l-.948.227c.008-.511.171-.82.483-.891Zm7.126-.495c.037 1.117.276 1.828 1.496 1.54.887-.208 1.359-.778 1.362-1.683l-.001-.148-.942.224-.003.183c-.006.277-.054.593-.41.667-.412.087-.505-.229-.505-.919 0-.032-.002-.075-.002-.316 0-.68.145-1.02.501-1.11.3-.076.414.082.414.498v.133l.944-.226v-.065c0-.351-.056-.602-.197-.788-.148-.194-.44-.396-1.209-.22-1.205.275-1.485 1.14-1.448 2.23Zm-3.32 1.532c0 .607.38 1.05 1.093.881.68-.16.877-.657.877-.657.037.15.121.324.121.324l.9-.213s-.14-.112-.14-.875V6.522c-.003-.666-.328-1.095-1.304-.87-.75.174-1.186.506-1.332 1-.078.26-.064.542-.064.542l.918-.216s-.003-.09.005-.183c.016-.174.096-.39.395-.467.326-.083.417.087.414.285-.003.235-.017.37-.671.64-.727.301-1.212.562-1.212 1.388Zm1.877-1.127v.496c0 .378-.203.65-.495.724-.27.067-.42-.092-.42-.333 0-.279.135-.46.435-.607.292-.142.48-.28.48-.28Zm-13.93 6.27a.491.491 0 0 0 .116-.012c.074-.016.433-.1.733-.176l.02-.005V12.55l-1.322.324-.011.003-.006.008a.6.6 0 0 0-.09.317c0 .322.251.584.56.584Zm0 1.366a.576.576 0 0 0 .116-.011c.074-.015.433-.101.733-.176l.02-.006v-1.042l-1.322.324-.011.002-.006.01a.586.586 0 0 0-.09.317c0 .322.251.582.56.582Zm0 1.3a.6.6 0 0 0 .116-.011c.064-.015.416-.097.733-.177l.02-.005v-1.042l-1.333.326-.006.01a.586.586 0 0 0-.09.317c0 .322.251.583.56.583Zm-.17-3.9 1.04-.246V6.632l-1.04.245v5.672Zm2.59-.468a.643.643 0 0 0-.644-.638.642.642 0 0 0-.646.638v5.306c0 .952.785 1.729 1.748 1.729l1.827-.003v-2.213l.001-2.468c0-.28-.14-.54-.375-.696l-1.63-1.094v2.484a.139.139 0 0 1-.277 0l-.003-3.045Zm.91-3.98c-.676.155-.932.717-.932.717v-.402l-.943.222v2.566a.965.965 0 0 1 .993.172V9.721c0-.397.2-.714.483-.776.213-.047.391.03.391.407v2.417l.994-.232V8.98c0-.62-.24-1.052-.986-.879ZM18.63 4.486a.619.619 0 0 0 0-1.236.619.619 0 0 0 0 1.235ZM55.843 6.902a.443.443 0 0 0 .28-.1.317.317 0 0 0 .126-.262c0-.117-.047-.201-.142-.252a.561.561 0 0 0-.264-.077h-.515v.69h.515Zm.483 1.568-.603-1.086h-.395V8.47h-.669V5.663h1.206c.132 0 .26.014.384.043.124.03.238.077.34.143a.73.73 0 0 1 .247.269.869.869 0 0 1 .093.422c0 .19-.053.347-.159.471a.936.936 0 0 1-.4.274l.745 1.185h-.79Zm-3.103-1.371a2.478 2.478 0 0 1 .735-1.76c.226-.223.491-.4.794-.532.304-.131.627-.197.97-.197.344 0 .668.066.971.197.304.132.569.31.795.532a2.478 2.478 0 0 1 .735 1.76c0 .343-.066.665-.197.965a2.495 2.495 0 0 1-2.303 1.502 2.514 2.514 0 0 1-1.765-.718 2.495 2.495 0 0 1-.538-.784 2.374 2.374 0 0 1-.197-.965Zm.395 0c0 .285.054.555.164.811.11.256.26.48.45.675a2.068 2.068 0 0 0 1.49.62 2.065 2.065 0 0 0 1.492-.62c.19-.194.34-.419.45-.675.11-.256.164-.526.164-.811 0-.292-.055-.567-.164-.822a2.112 2.112 0 0 0-.45-.67 2.112 2.112 0 0 0-3.432.67c-.11.255-.164.53-.164.822Z" fill-rule="nonzero"/></g></g></svg>