<svg width="216" height="100" viewBox="0 0 216 100" fill="none" xmlns="http://www.w3.org/2000/svg">
<g clip-path="url(#clip0_1_103)">
<path d="M53.2814 78.8421V22H56.1608V78.8421H53.2814ZM83.5214 29.3904V29.1057H95.0412V57.5268C95.0412 65.3746 88.594 71.7373 80.6411 71.7373C72.6882 71.7373 66.2414 65.3746 66.2414 57.5268H77.7612C77.7612 59.0956 79.0504 60.3689 80.6411 60.3689C82.2313 60.3689 83.5209 59.0956 83.5209 57.5268V29.3904H83.5214ZM125.118 44.363C126.393 45.7245 127.376 47.3798 128.041 49.2833C128.694 51.1591 129.025 53.2823 129.025 55.5937C129.025 56.1485 129.004 56.6523 128.962 57.092C128.902 57.705 128.846 57.9742 128.732 58.2025L128.413 58.8337H108.49C108.587 59.2839 108.732 59.71 108.924 60.1042C109.274 60.8333 109.756 61.4908 110.346 62.0432C110.938 62.5921 111.627 63.0256 112.378 63.3215C113.137 63.6252 113.97 63.7789 114.855 63.7789C116.598 63.7789 117.925 63.4029 118.798 62.6612L119.265 62.2647L127.71 64.5861L126.81 65.8957C126.012 67.0553 125.014 68.083 123.841 68.9516C122.671 69.8174 121.32 70.5054 119.828 70.9965C118.334 71.4876 116.661 71.7368 114.855 71.7368C112.803 71.7368 110.822 71.3762 108.966 70.6646C107.098 69.9488 105.435 68.8893 104.024 67.5155C102.615 66.1468 101.474 64.4551 100.632 62.4875C99.7887 60.5194 99.3612 58.2571 99.3612 55.7642C99.3612 53.4269 99.7682 51.2723 100.572 49.3602C101.374 47.453 102.473 45.7914 103.839 44.4217C105.198 43.0583 106.809 41.9712 108.582 41.2204C110.346 40.4658 112.245 40.0764 114.164 40.0758C116.453 40.0758 118.547 40.4478 120.385 41.1822C122.244 41.9238 123.836 42.9943 125.118 44.363V44.363ZM108.757 51.7284H119.808C119.745 51.4712 119.665 51.2183 119.569 50.9713C119.338 50.3821 118.986 49.8486 118.533 49.4061C118.069 48.9473 117.479 48.5721 116.78 48.2897C116.078 48.0064 115.217 47.8632 114.221 47.8632C113.352 47.8632 112.568 48.0123 111.893 48.3061C111.208 48.6053 110.623 48.9995 110.153 49.4784C109.673 49.9667 109.279 50.533 108.989 51.1532C108.901 51.3405 108.824 51.5325 108.757 51.7284V51.7284ZM180.13 44.5927C181.536 46.001 182.646 47.6849 183.43 49.5971C184.212 51.5079 184.608 53.6215 184.608 55.8779C184.608 58.1343 184.212 60.2556 183.432 62.1828C182.649 64.1155 181.537 65.8103 180.13 67.2199C178.723 68.6278 177.048 69.7437 175.151 70.5382C173.25 71.3335 171.141 71.7368 168.884 71.7368C166.666 71.7368 164.569 71.3339 162.649 70.54C160.728 69.7446 159.05 68.626 157.66 67.214C156.274 65.8062 155.175 64.1132 154.393 62.1828C153.613 60.2579 153.216 58.1366 153.216 55.8779C153.216 53.6188 153.613 51.5056 154.395 49.5971C155.177 47.6872 156.276 46.0051 157.661 44.5981C159.05 43.1871 160.728 42.0675 162.649 41.2727C164.569 40.4782 166.666 40.0758 168.884 40.0758C171.141 40.0758 173.249 40.4791 175.15 41.274C177.049 42.0684 178.724 43.1853 180.13 44.5927V44.5927ZM175.006 59.283C175.378 58.3176 175.566 57.1725 175.566 55.8779C175.566 54.5855 175.378 53.4514 175.009 52.5074C174.644 51.5761 174.147 50.788 173.53 50.1628C172.939 49.557 172.224 49.0855 171.434 48.7804C170.619 48.4716 169.755 48.3148 168.884 48.3179C167.995 48.3179 167.137 48.4739 166.334 48.7808C165.555 49.0799 164.852 49.5482 164.276 50.1518C163.668 50.7835 163.165 51.5806 162.781 52.5228C162.396 53.4623 162.203 54.5905 162.203 55.8779C162.203 57.1671 162.397 58.308 162.783 59.2671C163.168 60.2261 163.67 61.031 164.276 61.6599C164.86 62.2717 165.568 62.7515 166.352 63.0668C167.157 63.39 168.016 63.5546 168.884 63.5516C169.765 63.5516 170.617 63.3888 171.416 63.0673C172.211 62.7454 172.93 62.2628 173.53 61.6499C174.146 61.0264 174.642 60.2297 175.006 59.283V59.283ZM215.314 47.6362C215.769 49.0687 216 50.617 216 52.24V70.8842H207.015V53.3768C207.015 51.9212 206.651 50.6803 205.934 49.6889C205.293 48.8049 204.139 48.3747 202.407 48.3747C200.853 48.3747 199.73 48.8513 198.975 49.8304C198.145 50.9072 197.741 52.1968 197.741 53.7747V70.8842H188.757V40.9284H197.568V42.5809C198.179 42.062 198.858 41.6283 199.586 41.2918C201.25 40.5228 202.974 40.1326 204.711 40.1326C206.596 40.1326 208.269 40.4537 209.681 41.0871C211.104 41.726 212.301 42.6264 213.238 43.7642C214.15 44.8755 214.849 46.1779 215.314 47.6358V47.6362V47.6362ZM147.659 63.02C148.239 62.9486 148.405 62.9136 148.443 62.904L149.876 62.5475V70.2321L149.153 70.5177C148.99 70.5827 148.683 70.6882 147.752 70.9315C146.994 71.1293 145.974 71.2257 144.634 71.2257C141.724 71.2257 139.379 70.3899 137.667 68.7419C135.945 67.0876 135.073 64.7675 135.073 61.8468V49.0568H131.617V40.9289H135.072L135.073 32.4585H144V40.9289H149.818V49.0568H144V60.7654C144 61.6403 144.178 62.272 144.513 62.5912C144.859 62.9218 145.518 63.0968 146.42 63.0968C146.83 63.0968 147.247 63.0705 147.659 63.0195V63.02ZM2.96294 40.6406C2.90864 40.6553 2.85121 40.6538 2.7978 40.6361C2.74438 40.6184 2.69736 40.5854 2.66258 40.5412C2.62781 40.497 2.60683 40.4435 2.60226 40.3874C2.59769 40.3313 2.60974 40.2751 2.63689 40.2259C5.36758 35.2829 10.0632 31.4085 16.0098 29.8365C21.9559 28.2649 27.9862 29.3031 32.8555 32.237C32.9039 32.2655 32.9428 32.3077 32.9672 32.3582C32.9916 32.4088 33.0005 32.4654 32.9927 32.521C32.9849 32.5766 32.9608 32.6286 32.9234 32.6705C32.8861 32.7124 32.8371 32.7423 32.7828 32.7563L2.96294 40.6401V40.6406ZM39.5233 38.5279C40.852 40.4751 41.8453 42.6309 42.4623 44.906C43.0802 47.1756 43.3123 49.5329 43.1489 51.8794C43.1442 51.939 43.121 51.9957 43.0825 52.0415C43.044 52.0873 42.9922 52.12 42.9343 52.135L3.99201 62.4307C3.93391 62.4461 3.87248 62.4432 3.81603 62.4226C3.75958 62.4019 3.71085 62.3644 3.67642 62.3152C2.34818 60.3677 1.3547 58.2119 0.736999 55.937C0.119312 53.6671 -0.1128 51.3095 0.0503462 48.9627C0.0552336 48.9031 0.0785672 48.8464 0.117109 48.8006C0.155652 48.7548 0.207492 48.7221 0.265437 48.7071L39.2073 38.4115C39.2655 38.3959 39.3271 38.3986 39.3837 38.4194C39.4402 38.4401 39.489 38.4779 39.5233 38.5274V38.5279ZM40.2373 60.2024C40.2915 60.1877 40.3489 60.1893 40.4023 60.207C40.4557 60.2247 40.5026 60.2577 40.5373 60.302C40.572 60.3462 40.5929 60.3997 40.5974 60.4558C40.6018 60.5119 40.5897 60.568 40.5624 60.6172C37.8322 65.5602 33.1361 69.4345 27.1899 71.0065C21.2434 72.5781 15.214 71.5399 10.3442 68.606C10.2958 68.5776 10.2569 68.5354 10.2325 68.4849C10.2081 68.4344 10.1991 68.3778 10.2069 68.3222C10.2146 68.2666 10.2387 68.2145 10.276 68.1726C10.3133 68.1307 10.3622 68.1008 10.4165 68.0867L40.2368 60.2024H40.2373Z" fill="white"/>
</g>
<defs>
<clipPath id="clip0_1_103">
<rect width="216" height="56.8421" fill="white" transform="translate(0 22)"/>
</clipPath>
</defs>
</svg>
