<svg width="86" height="26" xmlns="http://www.w3.org/2000/svg"><g fill="#FFF" fill-rule="evenodd"><path d="M13 26C5.82 26 0 20.18 0 13S5.82 0 13 0s13 5.82 13 13-5.82 13-13 13Zm5.16-13.052c-.543-.408-1.315-.572-1.315-.572s.654-.379.92-.757c.268-.379.402-.965.424-1.27.022-.304.074-1.581-.92-2.316-.77-.569-1.652-.794-2.837-.868V4.588h-1.588v2.547h-1.21V4.588h-1.59v2.547H6.92v1.65h.919c.25 0 .696.027.885.24.19.21.223.322.223.734v6.574c0 .156-.03.35-.163.475-.134.127-.268.156-.587.156h-.95l-.327 1.909h3.126v2.539h1.589v-2.54h1.21v2.54h1.588V18.83c.411-.024.794-.055 1.017-.085.453-.059 1.478-.178 2.436-.846.957-.668 1.173-1.715 1.195-2.77.022-1.054-.379-1.774-.92-2.182ZM11.632 8.93s.505-.044 1.003-.037c.497.008.935.022 1.589.223.653.2 1.039.69 1.054 1.27.015.579-.238.965-.683 1.21-.446.245-1.062.378-1.641.4-.579.023-1.322 0-1.322 0V8.931Zm3.557 7.595c-.364.2-1.092.379-1.797.43-.705.053-1.76.03-1.76.03V13.58s1.01-.052 1.797 0c.787.052 1.448.252 1.745.401.297.148.816.475.816 1.255 0 .779-.438 1.09-.801 1.291Z"/><text font-family="Rubik-Regular, Rubik" font-size="16">
                <tspan x="34" y="15">Bitcoin</tspan>
            </text></g></svg>