<svg xmlns="http://www.w3.org/2000/svg" xml:space="preserve" width="600" height="360" style="shape-rendering:geometricPrecision;text-rendering:geometricPrecision;image-rendering:optimizeQuality;fill-rule:evenodd;clip-rule:evenodd" viewBox="0 0 673 404"><path d="M290 203h34c1-10-1-18-11-20-14-2-21 7-23 20zm137-18h-1c-11-1-23-5-33 1-6 4-5 9 0 14 10 6 19 4 28 14 14 20 1 43-20 50-15 3-39 2-54-3l4-21c13 3 21 5 34 4 13-2 16-14 2-20-11-4-19-7-25-16-5-11-3-27 4-36 14-14 46-12 64-9h2l-5 22zM471 0c112 0 202 90 202 202s-90 202-202 202c-93 0-171-62-195-148 18 11 46 14 65 4l4-23c-18 10-60 12-59-14v-2h62c6-34 3-57-35-60-13 0-24 2-35 10l-2 2-2 2-2 2c0 1-1 2-2 3C281 79 367 0 471 0zm12 265h27l9-54c1-4 2-8 4-12 5-8 16-11 25-10h1v-1l1-2v-2l1-3c1-4 2-8 4-11l1-2 1-2v-1l1-1 1-1h-1v-1c-14-2-24 6-32 17l2-16h-27l-18 102zm150-93c20 16 22 46 11 68-18 36-78 37-95 0-10-27-1-62 27-74 18-7 41-6 57 6zm-54 55c5 19 26 16 35 0 3-9 5-19 4-29-5-20-26-16-35 0-4 9-6 19-4 29zm-130-87h27l-5 23h17l-4 22-17-1-9 53c0 5 1 6 5 7 5 1 11 1 15-1h1l-3 18c-8 5-22 5-31 4-13-3-16-8-14-21l18-104zm191 120h8v1h-3v7h-2v-7h-3v-1zm9 0h2l3 6 3-6h2v8h-2v-6l-2 6h-2l-2-6v6h-2v-8z" style="fill:#fff"/><path d="M202 0c59 0 112 25 149 65h-30l-9 12h49l9 12h-67l-8 12h82c2 4 5 8 7 13h-95l-6 11h106c2 4 3 8 5 13H279l-3 11h121l3 12c-3 0-6 0-10 1h-73c-1 0-2-1-4-1-3 0-5 0-8 1h-33l-2 11h6l-2 2-2 2c-15 18-20 50-6 70 3 4 7 7 11 10l3 8h23c7 1 14 1 21 0h47c5 1 11 1 16 0h7c-2 5-3 10-5 14H284l6 11h94c-3 5-5 10-8 14h-79l7 12h65c-3 4-6 9-10 13h-46l9 11h28c-37 39-90 64-148 64C90 404 0 314 0 202S90 0 202 0zm141 173h23c-3 3-5 8-6 12h-11c-1-5-3-9-6-12zm60 10v2h-9c3-1 6-2 9-2zm-85 2h-18c3-2 8-3 13-2 2 0 4 1 5 2zm-27 11h33v7h-34c0-2 1-5 1-7zm59 0h9c0 4 1 8 3 12h-12v-12zm40 0h14v8c-3-1-7-2-11-4-1-1-2-2-3-4zm-42 23h28c3 2 7 3 11 5s7 4 8 7H287c-1-3-1-5-1-8v-2h62v-2zm-47 23h29c-9 2-21 3-29 0zm43 0h6l-2 12h-6l2-12zm16 0h32c-2 1-4 2-7 2-9 1-16 0-25-2zm-111 2-4 21h-24l1-2v-5l1-1v-3l-1 2c-13 12-35 15-50 4-17-16-9-41 9-53l3-1c14-6 30-5 45-5l1-1c2-9-3-15-12-16-9 0-33 1-40 5l7-22c12-6 34-6 48-4 16 4 29 12 26 31l-10 50zm-23-25c0-1 0-1-2-1-8-1-19 1-26 6-7 6-9 18 1 20 9 1 18-1 23-9 3-5 3-10 4-16zM48 265H22l22-125h46l4 75 31-75h47l-22 125h-26l16-93h-1l-38 93H71c-2-31-3-62-5-93h-1l-17 93z" style="fill:#e6e6e6"/><path style="fill:none;fill-rule:nonzero;stroke:#fefefe;stroke-width:.532146" d="M640 260h8v1h-3v7h-2v-7h-3v-1"/><path style="fill:#fefefe" d="M649 260h2l3 6 3-6h2v8h-2v-6l-2 6h-2l-2-6v6h-2z"/></svg>